<?xml version="1.0" encoding="UTF-8"?>
<svg xmlns="http://www.w3.org/2000/svg" width="63.0" height="60.0" viewBox="0 0 21.0 20.0">
  <g>
    <path d="M10.684,8.33V11.887H15.626C15.409,13.031 14.758,13.999 13.781,14.65L16.761,16.963C18.498,15.36 19.5,13.006 19.5,10.209C19.5,9.558 19.441,8.931 19.333,8.33L10.684,8.33Z" fill="#4285F4" />
    <path d="M5.537,11.748L4.865,12.262L2.485,14.116C3.996,17.113 7.094,19.184 10.684,19.184C13.163,19.184 15.242,18.365 16.761,16.963L13.781,14.65C12.963,15.201 11.919,15.535 10.684,15.535C8.296,15.535 6.267,13.924 5.541,11.753L5.537,11.748Z" fill="#34A853" />
    <path d="M2.485,5.884C1.859,7.12 1.5,8.514 1.5,10C1.5,11.486 1.859,12.88 2.485,14.116C2.485,14.124 5.541,11.745 5.541,11.745C5.357,11.194 5.249,10.609 5.249,10C5.249,9.39 5.357,8.806 5.541,8.255L2.485,5.884Z" fill="#FBBC05" />
    <path d="M10.684,4.473C12.036,4.473 13.239,4.941 14.199,5.842L16.829,3.212C15.234,1.726 13.163,0.816 10.684,0.816C7.094,0.816 3.996,2.878 2.485,5.884L5.541,8.255C6.267,6.084 8.296,4.473 10.684,4.473Z" fill="#EA4335" />
  </g>
</svg>
